# xmcd
#
# Track frame offsets:
#	150
#	16840
#	75923
#	95248
#	132605
#	143668
#	164253
#	196405
#	232022
#	263662
#
# Disc length: 4249 seconds
#
# Revision: 1
# Processed by: cddbd v1.5.2PL0 Copyright (c) Steve Scherf et al.
# Submitted via: audiograbber 1.83.01
#
DISCID=8010970a
DTITLE=Grateful Dead - 82-05-23 Greek Theatre, Uni of California, Berkeley CA
DYEAR=1900
DGENRE=
TTITLE0=Crowd - Tuning
TTITLE1=Shakedown Street
TTITLE2=Promised Land
TTITLE3=They Love Each Other
TTITLE4=Mama Tried
TTITLE5=Mexicali Blues
TTITLE6=Loser
TTITLE7=Little Red Rooster
TTITLE8=Ramble On Rose
TTITLE9=Let It Grow
EXTD=
EXTT0=
EXTT1=
EXTT2=
EXTT3=
EXTT4=
EXTT5=
EXTT6=
EXTT7=
EXTT8=
EXTT9=
PLAYORDER=
